<svg width="356" height="317" viewBox="0 0 356 317" fill="none" xmlns="http://www.w3.org/2000/svg">
<path d="M267.731 249.654C271.455 290.349 292.279 322.505 354.634 315.685L355.392 3.55084L0.761367 0.294127C5.96349 48.6216 38.6904 81.3928 91.2032 58.8752C143.716 36.3576 142.41 78.522 139.117 102.587C135.824 126.652 147.517 172.979 198.227 173.445C273.526 174.137 264.752 217.099 267.731 249.654Z" fill="#FFEEEE"/>
<path d="M280.552 229.656C283.7 267.168 301.343 296.794 354.196 290.455L354.908 2.71038L54.3257 -9.57958e-06C58.7243 44.547 86.4562 74.7306 130.971 53.9292C175.485 33.1278 193.224 75.9669 190.428 98.1541C188.628 120.603 203.735 159.297 221.658 159.459C285.481 160.034 278.035 199.647 280.552 229.656Z" fill="#FFF7F7"/>
<path d="M299.522 175.067C301.865 203.554 315.004 226.05 354.367 221.23L354.908 2.7104L131.045 0.691794C134.319 34.5211 159.927 76.8936 193.081 61.0908C226.235 45.2879 234.489 58.3642 232.405 75.214C231.064 92.2621 242.314 121.645 255.662 121.766C303.196 122.194 297.648 152.278 299.522 175.067Z" fill="#FFFDFD"/>
</svg>
