<svg width="579" height="374" viewBox="0 0 579 374" fill="none" xmlns="http://www.w3.org/2000/svg">
<path d="M435.486 293.363C441.954 340.84 476.057 377.998 577.082 368.784L575.006 4.04457L-7.92993e-06 7.31689C8.94615 63.6831 63.8105 151.732 125.054 98.8368C192.791 40.3328 266.602 100.507 261.518 128.692C258.342 157.187 287.703 205.896 321.99 205.7C444.082 205.006 430.311 255.381 435.486 293.363Z" fill="#FFF7F7"/>
<path d="M463.346 199.442C468.188 231.348 495.421 256.548 577.043 251.162L578.275 6.42196L100.028 6.32936C81.9309 48.6267 145.847 113.667 208.147 87.562C264.126 64.1052 311.451 60.4479 324.228 87.5844C321.438 106.678 344.75 139.591 372.429 139.73C470.989 140.226 459.471 173.917 463.346 199.442Z" fill="#FFEEEE"/>
<path d="M514 131.045C534 160.045 513.722 189.045 574.99 176.192L574.99 4.02212L325 4.02212C329.146 31.2077 372 97.0446 394.431 51.1525C411.468 16.2937 440.098 47.9182 438.063 61.5518C436.85 75.3267 427.657 106.606 438.063 117.045C458 137.045 503.507 115.83 514 131.045Z" fill="#FFFDFD"/>
</svg>
