<svg width="187" height="179" viewBox="0 0 187 179" fill="none" xmlns="http://www.w3.org/2000/svg">
<path d="M45.908 37.8911C43.8923 14.6536 32.8707 -3.61443 0 0.610587V179H187C184.195 151.408 166.896 132.851 139.235 145.995C111.574 159.14 112.209 135.036 113.914 121.266C115.62 107.495 109.395 81.0801 82.6549 81.0801C42.949 81.0801 47.5205 56.4812 45.908 37.8911Z" fill="#FFEEEE"/>
<path d="M37.3156 52.8692C35.6772 32.0981 26.7184 15.7692 0 19.5458V179H152C149.72 154.337 135.659 137.749 113.175 149.499C90.6914 161.248 81.6676 137.598 83.0539 125.289C83.9361 112.84 76.2483 91.4739 67.1847 91.4739C34.9104 91.4739 38.6263 69.486 37.3156 52.8692Z" fill="#FFF7F7"/>
<path d="M29.7052 82.8252C28.4009 66.9873 21.2693 54.5365 0 57.4162V179H121C119.185 160.194 105.287 136.747 87.3889 145.706C69.4906 154.665 65.0117 147.431 66.1153 138.045C66.8176 128.553 60.6977 112.261 53.4826 112.261C27.7905 112.261 30.7486 95.4955 29.7052 82.8252Z" fill="#FFFDFD"/>
</svg>
