<svg width="600" height="386" viewBox="0 0 600 386" fill="none" xmlns="http://www.w3.org/2000/svg">
<path d="M147.298 81.7093C140.831 31.5993 105.467 -7.79424 0 1.31669V386H600C591 326.5 535.496 286.483 446.744 314.828C357.992 343.173 360.028 291.195 365.5 261.5C370.972 231.805 351 174.843 265.203 174.843C137.804 174.843 152.472 121.797 147.298 81.7093Z" fill="#FFEEEE"/>
<path d="M119.557 114.03C114.308 69.2429 85.6044 34.0336 0 42.1768V386H487C479.695 332.82 434.644 297.053 362.607 322.388C290.57 347.722 261.659 296.727 266.1 270.186C268.927 243.344 244.296 197.272 215.256 197.272C111.851 197.272 123.757 149.86 119.557 114.03Z" fill="#FFF7F7"/>
<path d="M95.0074 179.461C90.836 145.448 68.0265 118.71 0 124.894V386H387C381.195 345.614 336.745 295.261 279.5 314.5C222.255 333.739 207.93 318.204 211.46 298.048C213.706 277.664 194.132 242.676 171.056 242.676C88.8837 242.676 98.3446 206.671 95.0074 179.461Z" fill="#FFFDFD"/>
</svg>
